<svg width="140" height="140" viewBox="0 0 140 140" fill="none" xmlns="http://www.w3.org/2000/svg">
<rect width="140" height="140" rx="20" fill="url(#paint0_linear_2_5)"/>
<path d="M47.4545 105V35.1818H71.8636C76.7273 35.1818 80.7386 36.0227 83.8977 37.7045C87.0568 39.3636 89.4091 41.6023 90.9545 44.4205C92.5 47.2159 93.2727 50.3182 93.2727 53.7273C93.2727 56.7273 92.7386 59.2045 91.6705 61.1591C90.625 63.1136 89.2386 64.6591 87.5114 65.7955C85.8068 66.9318 83.9545 67.7727 81.9545 68.3182V69C84.0909 69.1364 86.2386 69.8864 88.3977 71.25C90.5568 72.6136 92.3636 74.5682 93.8182 77.1136C95.2727 79.6591 96 82.7727 96 86.4545C96 89.9545 95.2045 93.1023 93.6136 95.8977C92.0227 98.6932 89.5114 100.909 86.0795 102.545C82.6477 104.182 78.1818 105 72.6818 105H47.4545ZM55.9091 97.5H72.6818C78.2045 97.5 82.125 96.4318 84.4432 94.2955C86.7841 92.1364 87.9545 89.5227 87.9545 86.4545C87.9545 84.0909 87.3523 81.9091 86.1477 79.9091C84.9432 77.8864 83.2273 76.2727 81 75.0682C78.7727 73.8409 76.1364 73.2273 73.0909 73.2273H55.9091V97.5ZM55.9091 65.8636H71.5909C74.1364 65.8636 76.4318 65.3636 78.4773 64.3636C80.5455 63.3636 82.1818 61.9545 83.3864 60.1364C84.6136 58.3182 85.2273 56.1818 85.2273 53.7273C85.2273 50.6591 84.1591 48.0568 82.0227 45.9205C79.8864 43.7614 76.5 42.6818 71.8636 42.6818H55.9091V65.8636Z" fill="white"/>
<defs>
<linearGradient id="paint0_linear_2_5" x1="9" y1="140" x2="140" y2="4.88013e-07" gradientUnits="userSpaceOnUse">
<stop stop-color="#5F16F0"/>
<stop offset="1" stop-color="#B48EFF"/>
</linearGradient>
</defs>
</svg>
