<svg width="140" height="140" viewBox="0 0 140 140" fill="none" xmlns="http://www.w3.org/2000/svg">
<rect width="140" height="140" rx="20" fill="url(#paint0_linear_2_9)"/>
<path d="M70.0227 105.955C65.3409 105.955 61.1591 105.148 57.4773 103.534C53.8182 101.92 50.9205 99.6818 48.7841 96.8182C46.6705 93.9318 45.5341 90.5909 45.375 86.7955H56.0795C56.2159 88.8636 56.9091 90.6591 58.1591 92.1818C59.4318 93.6818 61.0909 94.8409 63.1364 95.6591C65.1818 96.4773 67.4545 96.8864 69.9545 96.8864C72.7045 96.8864 75.1364 96.4091 77.25 95.4545C79.3864 94.5 81.0568 93.1705 82.2614 91.4659C83.4659 89.7386 84.0682 87.75 84.0682 85.5C84.0682 83.1591 83.4659 81.1023 82.2614 79.3295C81.0795 77.5341 79.3409 76.125 77.0455 75.1023C74.7727 74.0795 72.0227 73.5682 68.7955 73.5682H62.8977V64.9773H68.7955C71.3864 64.9773 73.6591 64.5114 75.6136 63.5795C77.5909 62.6477 79.1364 61.3523 80.25 59.6932C81.3636 58.0114 81.9205 56.0455 81.9205 53.7955C81.9205 51.6364 81.4318 49.7614 80.4545 48.1705C79.5 46.5568 78.1364 45.2955 76.3636 44.3864C74.6136 43.4773 72.5455 43.0227 70.1591 43.0227C67.8864 43.0227 65.7614 43.4432 63.7841 44.2841C61.8295 45.1023 60.2386 46.2841 59.0114 47.8295C57.7841 49.3523 57.125 51.1818 57.0341 53.3182H46.8409C46.9545 49.5455 48.0682 46.2273 50.1818 43.3636C52.3182 40.5 55.1364 38.2614 58.6364 36.6477C62.1364 35.0341 66.0227 34.2273 70.2955 34.2273C74.7727 34.2273 78.6364 35.1023 81.8864 36.8523C85.1591 38.5795 87.6818 40.8864 89.4545 43.7727C91.25 46.6591 92.1364 49.8182 92.1136 53.25C92.1364 57.1591 91.0455 60.4773 88.8409 63.2045C86.6591 65.9318 83.75 67.7614 80.1136 68.6932V69.2386C84.75 69.9432 88.3409 71.7841 90.8864 74.7614C93.4545 77.7386 94.7273 81.4318 94.7045 85.8409C94.7273 89.6818 93.6591 93.125 91.5 96.1705C89.3636 99.2159 86.4432 101.614 82.7386 103.364C79.0341 105.091 74.7955 105.955 70.0227 105.955Z" fill="white"/>
<defs>
<linearGradient id="paint0_linear_2_9" x1="9" y1="140" x2="140" y2="4.88013e-07" gradientUnits="userSpaceOnUse">
<stop stop-color="#1830DA"/>
<stop offset="1" stop-color="#8393FF"/>
</linearGradient>
</defs>
</svg>
