<svg width="140" height="140" viewBox="0 0 140 140" fill="none" xmlns="http://www.w3.org/2000/svg">
<rect width="140" height="140" rx="20" fill="url(#paint0_linear_2_12)"/>
<path d="M68.7614 105.955C64.4886 105.955 60.6477 105.136 57.2386 103.5C53.8523 101.841 51.1477 99.5682 49.125 96.6818C47.1023 93.7955 46.0227 90.5 45.8864 86.7955H56.1136C56.3636 89.7955 57.6932 92.2614 60.1023 94.1932C62.5114 96.125 65.3977 97.0909 68.7614 97.0909C71.4432 97.0909 73.8182 96.4773 75.8864 95.25C77.9773 94 79.6136 92.2841 80.7955 90.1023C82 87.9205 82.6023 85.4318 82.6023 82.6364C82.6023 79.7955 81.9886 77.2614 80.7614 75.0341C79.5341 72.8068 77.8409 71.0568 75.6818 69.7841C73.5455 68.5114 71.0909 67.8636 68.3182 67.8409C66.2045 67.8409 64.0795 68.2045 61.9432 68.9318C59.8068 69.6591 58.0795 70.6136 56.7614 71.7955L47.1136 70.3636L51.0341 35.1818H89.4205V44.2159H59.7955L57.5795 63.75H57.9886C59.3523 62.4318 61.1591 61.3295 63.4091 60.4432C65.6818 59.5568 68.1136 59.1136 70.7045 59.1136C74.9545 59.1136 78.7386 60.125 82.0568 62.1477C85.3977 64.1705 88.0227 66.9318 89.9318 70.4318C91.8636 73.9091 92.8182 77.9091 92.7955 82.4318C92.8182 86.9545 91.7955 90.9886 89.7273 94.5341C87.6818 98.0795 84.8409 100.875 81.2045 102.92C77.5909 104.943 73.4432 105.955 68.7614 105.955Z" fill="white"/>
<defs>
<linearGradient id="paint0_linear_2_12" x1="9" y1="140" x2="140" y2="4.88013e-07" gradientUnits="userSpaceOnUse">
<stop stop-color="#F05000"/>
<stop offset="1" stop-color="#FFAE64"/>
</linearGradient>
</defs>
</svg>
