<svg width="140" height="140" viewBox="0 0 140 140" fill="none" xmlns="http://www.w3.org/2000/svg">
<rect width="140" height="140" rx="20" fill="url(#paint0_linear_2_13)"/>
<path d="M48.2038 38.7273H59.5732V83.2159C59.5526 87.294 58.6875 90.8058 56.978 93.7511C55.2685 96.6758 52.8793 98.9311 49.8104 100.517C46.7621 102.082 43.2092 102.865 39.1516 102.865C35.4442 102.865 32.1076 102.206 29.1417 100.888C26.1964 99.549 23.8587 97.5717 22.1286 94.956C20.3984 92.3402 19.5334 89.0859 19.5334 85.1932H30.9336C30.9542 86.9027 31.3249 88.3754 32.0458 89.6111C32.7873 90.8469 33.8068 91.7944 35.1044 92.4535C36.402 93.1126 37.8952 93.4421 39.5842 93.4421C41.4173 93.4421 42.9723 93.0611 44.2493 92.299C45.5263 91.5163 46.4943 90.3629 47.1534 88.8388C47.8331 87.3146 48.1832 85.4403 48.2038 83.2159V38.7273ZM106.394 56.1211C106.106 53.4229 104.891 51.3221 102.749 49.8185C100.627 48.315 97.8674 47.5632 94.4689 47.5632C92.0797 47.5632 90.0304 47.9236 88.3208 48.6445C86.6113 49.3654 85.3034 50.3437 84.3972 51.5795C83.4909 52.8153 83.0275 54.2262 83.0069 55.8121C83.0069 57.1303 83.3056 58.2734 83.9029 59.2415C84.5208 60.2095 85.3549 61.0334 86.4054 61.7131C87.4558 62.3722 88.6195 62.9283 89.8965 63.3814C91.1735 63.8345 92.4608 64.2156 93.7583 64.5245L99.6902 66.0075C102.079 66.5636 104.376 67.3153 106.58 68.2628C108.804 69.2102 110.792 70.4048 112.542 71.8466C114.314 73.2884 115.714 75.0288 116.744 77.0678C117.774 79.1069 118.289 81.4961 118.289 84.2354C118.289 87.9428 117.341 91.2074 115.447 94.0291C113.552 96.8303 110.812 99.0238 107.229 100.61C103.665 102.175 99.3503 102.958 94.2836 102.958C89.361 102.958 85.0872 102.196 81.4622 100.672C77.8578 99.1474 75.036 96.9229 72.997 93.9982C70.9785 91.0735 69.8869 87.5103 69.7221 83.3086H80.9988C81.1635 85.5124 81.8432 87.3455 83.0378 88.8079C84.2324 90.2702 85.7875 91.3619 87.7029 92.0827C89.639 92.8036 91.8017 93.1641 94.1909 93.1641C96.6831 93.1641 98.8663 92.7933 100.741 92.0518C102.635 91.2898 104.118 90.2393 105.189 88.9006C106.26 87.5412 106.806 85.9553 106.827 84.1428C106.806 82.495 106.322 81.1357 105.375 80.0646C104.427 78.973 103.099 78.0668 101.389 77.3459C99.7005 76.6044 97.7232 75.9453 95.4576 75.3686L88.2591 73.5149C83.0481 72.1761 78.9288 70.1474 75.9011 67.4286C72.894 64.6893 71.3904 61.054 71.3904 56.5227C71.3904 52.7947 72.3997 49.5302 74.4181 46.729C76.4572 43.9279 79.2275 41.755 82.7289 40.2102C86.2303 38.6449 90.1951 37.8622 94.6234 37.8622C99.1135 37.8622 103.047 38.6449 106.425 40.2102C109.824 41.755 112.491 43.9073 114.427 46.6673C116.363 49.4066 117.362 52.5579 117.424 56.1211H106.394Z" fill="white"/>
<defs>
<linearGradient id="paint0_linear_2_13" x1="9" y1="140" x2="140" y2="4.88013e-07" gradientUnits="userSpaceOnUse">
<stop stop-color="#F0D800"/>
<stop offset="0.515625" stop-color="#FFEB35"/>
<stop offset="1" stop-color="#FFF492"/>
</linearGradient>
</defs>
</svg>
