<svg width="186" height="140" viewBox="0 0 186 140" fill="none" xmlns="http://www.w3.org/2000/svg">
<rect width="186" height="140" rx="20" fill="url(#paint0_linear_2_16)"/>
<path d="M28.8778 95V45.5455H47.4233C51.2225 45.5455 54.41 46.2538 56.9858 47.6705C59.5777 49.0871 61.5336 51.035 62.8537 53.5142C64.1899 55.9773 64.858 58.7784 64.858 61.9176C64.858 65.089 64.1899 67.9062 62.8537 70.3693C61.5175 72.8324 59.5455 74.7723 56.9375 76.1889C54.3295 77.5895 51.1179 78.2898 47.3026 78.2898H35.0114V70.9247H46.0952C48.3168 70.9247 50.1359 70.5384 51.5526 69.7656C52.9692 68.9929 54.0156 67.9304 54.6918 66.5781C55.384 65.2259 55.7301 63.6723 55.7301 61.9176C55.7301 60.1629 55.384 58.6174 54.6918 57.2812C54.0156 55.9451 52.9612 54.9067 51.5284 54.1662C50.1117 53.4096 48.2846 53.0312 46.0469 53.0312H37.8366V95H28.8778ZM72.6396 95V45.5455H81.5984V66.4815H104.515V45.5455H113.498V95H104.515V73.9915H81.5984V95H72.6396ZM123.241 95V45.5455H141.787C145.586 45.5455 148.773 46.2538 151.349 47.6705C153.941 49.0871 155.897 51.035 157.217 53.5142C158.553 55.9773 159.221 58.7784 159.221 61.9176C159.221 65.089 158.553 67.9062 157.217 70.3693C155.881 72.8324 153.909 74.7723 151.301 76.1889C148.693 77.5895 145.481 78.2898 141.666 78.2898H129.375V70.9247H140.458C142.68 70.9247 144.499 70.5384 145.916 69.7656C147.333 68.9929 148.379 67.9304 149.055 66.5781C149.747 65.2259 150.093 63.6723 150.093 61.9176C150.093 60.1629 149.747 58.6174 149.055 57.2812C148.379 55.9451 147.324 54.9067 145.892 54.1662C144.475 53.4096 142.648 53.0312 140.41 53.0312H132.2V95H123.241Z" fill="white"/>
<defs>
<linearGradient id="paint0_linear_2_16" x1="11.9571" y1="140" x2="135.573" y2="-35.5157" gradientUnits="userSpaceOnUse">
<stop stop-color="#6579AA"/>
<stop offset="1" stop-color="#B9C7EB"/>
</linearGradient>
</defs>
</svg>
